<svg xmlns="http://www.w3.org/2000/svg">
  <!-- Ícono de construcción (Navbar logo) -->
  <symbol id="building" viewBox="0 0 24 24">
    <path d="M12 2C6.477 2 2 6.477 2 12s4.477 10 10 10 10-4.477 10-10S17.523 2 12 2zm0 18c-4.411 0-8-3.589-8-8s3.589-8 8-8 8 3.589 8 8-3.589 8-8 8zm-4-8h8v-2H8v2zm0-4h8v-2H8v2z"/>
  </symbol>
  <!-- Ícono de dashboard -->
  <symbol id="dashboard" viewBox="0 0 24 24">
    <path d="M3 13h8V3H3zm2-8h4v6H5zm8 16h8v-8h-8zm2-6h4v4h-4zm-10 6h8v-8H3zm2-6h4v4H5zm10-6V3h8v8zM17 5v4h4V5z"/>
  </symbol>
  <!-- Ícono de propietarios -->
  <symbol id="profile" viewBox="0 0 24 24">
    <path d="M12 12c2.21 0 4-1.79 4-4S14.21 4 12 4s-4 1.79-4 4 1.79 4 4 4zm0 2c-2.61 0-8 1.3-8 4v2h16v-2c0-2.7-5.39-4-8-4z"/>
  </symbol>
  <!-- Ícono de menú hamburguesa -->
  <symbol id="menu" viewBox="0 0 24 24">
    <path d="M3 6h18v2H3zm0 6h18v2H3zm0 6h18v2H3z"/>
  </symbol>
  <!-- Ícono de pin/ubicación -->
  <symbol id="map-pin" viewBox="0 0 24 24">
    <path d="M12 2C8.13 2 5 5.13 5 9c0 5.25 7 13 7 13s7-7.75 7-13c0-3.87-3.13-7-7-7zm0 9.5c-1.38 0-2.5-1.12-2.5-2.5s1.12-2.5 2.5-2.5 2.5 1.12 2.5 2.5-1.12 2.5-2.5 2.5z"/>
  </symbol>
  <!-- Ícono de flecha derecha -->
  <symbol id="chevron-right" viewBox="0 0 24 24">
    <path d="M10 6L8.59 7.41 13.17 12l-4.58 4.59L10 18l6-6z"/>
  </symbol>
  <!-- Ícono de gráfico ascendente -->
  <symbol id="trending-up" viewBox="0 0 24 24">
    <path d="M16 6l2.29 2.29-4.88 4.88-4-4L2 16.59 3.41 18l6-6 4 4 6.3-6.29L22 12V6z"/>
  </symbol>
  <!-- Ícono de gráfico descendente -->
  <symbol id="trending-down" viewBox="0 0 24 24">
    <path d="M16 18l2.29-2.29-4.88-4.88-4 4L2 7.41 3.41 6l6 6 4-4 6.3 6.29L22 12v6z"/>
  </symbol>
  <!-- Ícono de personas -->
  <symbol id="people" viewBox="0 0 24 24">
    <path d="M16 11c1.66 0 2.99-1.34 2.99-3S17.66 5 16 5c-1.66 0-3 1.34-3 3s1.34 3 3 3zm-8 0c1.66 0 2.99-1.34 2.99-3S9.66 5 8 5C6.34 5 5 6.34 5 8s1.34 3 3 3zm0 2c-2.33 0-7 1.17-7 3.5V19h14v-2.5c0-2.33-4.67-3.5-7-3.5zm8 0c-.29 0-.62.02-.97.05 1.16.84 1.97 1.97 1.97 3.45V19h6v-2.5c0-2.33-4.67-3.5-7-3.5z"/>
  </symbol>
  <!-- Ícono de escudo -->
  <symbol id="shield" viewBox="0 0 24 24">
    <path d="M12 1L3 5v6c0 5.55 3.84 10.74 9 12 5.16-1.26 9-6.45 9-12V5l-9-4z"/>
  </symbol>
  <!-- Ícono de gota de agua -->
  <symbol id="water" viewBox="0 0 24 24">
    <path d="M12 2.69l5.66 5.66a8 8 0 1 1-11.31 0z"/>
  </symbol>
  <!-- Ícono de rayo -->
  <symbol id="lightning" viewBox="0 0 24 24">
    <path d="M7 2v11h3v9l7-12h-4l4-8z"/>
  </symbol>
  <!-- Ícono de WiFi -->
  <symbol id="wifi" viewBox="0 0 24 24">
    <path d="M1 9l2 2c4.97-4.97 13.03-4.97 18 0l2-2C16.93 2.93 7.07 2.93 1 9zm8 8l3 3 3-3c-1.65-1.66-4.34-1.66-6 0zm-4-4l2 2c2.76-2.76 7.24-2.76 10 0l2-2C15.14 9.14 8.87 9.14 5 13z"/>
  </symbol>
  <!-- Ícono de ascensor -->
  <symbol id="elevator" viewBox="0 0 24 24">
    <path d="M7 2v2h10V2H7zm0 4v2h10V6H7zm0 4v2h10v-2H7zm0 4v2h10v-2H7zm0 4v2h10v-2H7z"/>
    <path d="M5 8l2 2-2 2zm14-4l-2 2 2 2z"/>
  </symbol>
  <!-- Ícono de campana -->
  <symbol id="bell" viewBox="0 0 24 24">
    <path d="M12 22c1.1 0 2-.9 2-2h-4c0 1.1.9 2 2 2zm6-6v-5c0-3.07-1.64-5.64-4.5-6.32V4c0-.83-.67-1.5-1.5-1.5s-1.5.67-1.5 1.5v.68C7.63 5.36 6 7.92 6 11v5l-2 2v1h16v-1l-2-2z"/>
  </symbol>
  <!-- Ícono de exclamación -->
  <symbol id="exclamation" viewBox="0 0 24 24">
    <path d="M1 21h22L12 2 1 21zm12-3h-2v-2h2v2zm0-4h-2v-4h2v4z"/>
  </symbol>
  <!-- Ícono de X -->
  <symbol id="x" viewBox="0 0 24 24">
    <path d="M19 6.41L17.59 5 12 10.59 6.41 5 5 6.41 10.59 12 5 17.59 6.41 19 12 13.41 17.59 19 19 17.59 13.41 12z"/>
  </symbol>
  <!-- Ícono de reloj -->
  <symbol id="clock" viewBox="0 0 24 24">
    <path d="M11.99 2C6.47 2 2 6.48 2 12s4.47 10 9.99 10C17.52 22 22 17.52 22 12S17.52 2 11.99 2zM12 20c-4.42 0-8-3.58-8-8s3.58-8 8-8 8 3.58 8 8-3.58 8-8 8z"/>
    <path d="M12.5 7H11v6l5.25 3.15.75-1.23-4.5-2.67z"/>
  </symbol>
  <!-- Ícono de check -->
  <symbol id="check" viewBox="0 0 24 24">
    <path d="M9 16.17L4.83 12l-1.42 1.41L9 19 21 7l-1.41-1.41z"/>
  </symbol>
  <!-- Ícono de dólar -->
  <symbol id="dollar" viewBox="0 0 24 24">
    <path d="M11.8 10.9c-2.27-.59-3-1.2-3-2.15 0-1.09 1.01-1.85 2.7-1.85 1.78 0 2.44.85 2.5 2.1h2.21c-.07-1.72-1.12-3.3-3.21-3.81V3h-3v2.16c-1.94.42-3.5 1.68-3.5 3.61 0 2.31 1.91 3.46 4.7 4.13 2.5.6 3 1.48 3 2.41 0 .69-.49 1.79-2.7 1.79-2.06 0-2.87-.92-2.98-2.1h-2.2c.12 2.19 1.76 3.42 3.68 3.83V21h3v-2.15c1.95-.37 3.5-1.5 3.5-3.55 0-2.84-2.43-3.81-4.7-4.4z"/>
  </symbol>
  <!-- Ícono de alcancía -->
  <symbol id="piggy-bank" viewBox="0 0 24 24">
    <path d="M19.83 7.5l-2.27-2.27c.07-.42.18-.81.32-1.15.11-.26.15-.56.09-.87l-.02-.16c-.05-.51-.46-.9-.97-.95h-.09c-.51.05-.91.44-.96.95l-.02.15c-.05.31-.02.62.09.87.14.34.25.73.32 1.15l-2.27 2.27c-.39-.17-.85-.27-1.33-.27H5v-2l-3 3 3 3v-2h4.5c.83 0 1.5.67 1.5 1.5S10.33 12 9.5 12H6v2h3.5c.08 0 .15.03.22.05l-2.97 2.97c-.39.39-.39 1.02 0 1.41.39.39 1.02.39 1.41 0L11 16.41V18c0 1.1.9 2 2 2h5.5c.83 0 1.5-.67 1.5-1.5v-5c0-.48-.1-.94-.27-1.36l2.1-2.14z"/>
  </symbol>
  <!-- Ícono de casa -->
  <symbol id="home" viewBox="0 0 24 24">
    <path d="M10 20v-6h4v6h5v-8h3L12 3 2 12h3v8z"/>
  </symbol>
  <!-- Ícono de gastos (cuadrado con dólar) -->
  <symbol id="expenses" viewBox="0 0 24 24">
    <!-- Cuadrado -->
    <rect x="5" y="5" width="14" height="14" rx="2" fill="none" stroke="currentColor" stroke-width="2"/>
    <!-- Símbolo de dólar -->
    <path d="M12 8v8M10 11h2c1.1 0 2 .9 2 2s-.9 2-2 2h-2c-1.1 0-2-.9-2-2" stroke="currentColor" stroke-width="2" stroke-linecap="round" fill="none"/>
  </symbol>
  <!-- Ícono de plus/suma -->
  <symbol id="plus" viewBox="0 0 24 24">
    <path d="M19 13h-6v6h-2v-6H5v-2h6V5h2v6h6v2z"/>
  </symbol>
  <!-- Ícono de nube/subida -->
  <symbol id="cloud-upload" viewBox="0 0 24 24">
    <path d="M19.35 10.04C18.67 6.59 15.64 4 12 4 9.11 4 6.6 5.64 5.35 8.04 2.34 8.36 0 10.91 0 14c0 3.31 2.69 6 6 6h13c2.76 0 5-2.24 5-5 0-2.64-2.05-4.78-4.65-4.96zM14 13v4h-4v-4H7l5-5 5 5h-3z"/>
  </symbol>
  <!-- Ícono de alerta -->
  <symbol id="alert" viewBox="0 0 24 24">
    <path d="M1 21h22L12 2 1 21zm12-3h-2v-2h2v2zm0-4h-2v-4h2v4z"/>
  </symbol>
</svg>
